<?xml version="1.0" standalone="no"?>
<!DOCTYPE svg PUBLIC "-//W3C//DTD SVG 20010904//EN"
 "http://www.w3.org/TR/2001/REC-SVG-20010904/DTD/svg10.dtd">
<svg version="1.0" xmlns="http://www.w3.org/2000/svg"
 width="1280.000000pt" height="612.000000pt" viewBox="0 0 1280.000000 612.000000"
 preserveAspectRatio="xMidYMid meet">
<metadata>
Created by potrace 1.15, written by Peter Selinger 2001-2017
</metadata>
<g transform="translate(0.000000,612.000000) scale(0.100000,-0.100000)"
fill="#000000" stroke="none">
<path d="M453 5365 c-102 -22 -190 -70 -264 -144 -82 -82 -104 -138 -97 -242
9 -119 87 -218 228 -289 89 -45 172 -63 290 -63 175 -1 310 48 420 149 58 54
60 55 97 45 58 -17 127 -13 194 9 l60 20 62 -62 c107 -109 246 -161 427 -161
173 -1 311 49 419 149 59 54 61 55 98 45 58 -17 127 -13 194 9 l60 20 62 -62
c108 -110 246 -162 427 -161 173 0 313 50 419 150 l56 54 42 -11 c63 -15 127
-12 193 10 l60 20 62 -62 c110 -110 247 -162 428 -161 174 0 317 52 419 151
l54 54 43 -11 c64 -16 128 -13 194 9 l60 20 63 -64 c109 -109 246 -160 427
-159 174 0 317 52 419 151 l54 54 43 -11 c64 -16 128 -13 194 9 l60 20 62 -63
c108 -109 245 -161 428 -160 172 0 324 56 423 155 l50 50 43 -11 c64 -16 128
-13 194 9 l60 20 62 -63 c108 -109 245 -161 428 -160 172 0 321 55 422 156
l49 49 44 -11 c65 -16 128 -13 195 9 l58 20 64 -63 c109 -110 246 -161 428
-160 172 0 321 55 421 155 48 48 49 48 91 38 67 -15 133 -12 198 10 l58 20 64
-63 c109 -110 246 -161 428 -160 172 0 322 55 420 155 48 49 48 49 91 39 68
-16 134 -13 199 9 l58 20 64 -63 c70 -70 153 -116 258 -143 79 -21 243 -23
320 -5 92 22 210 84 267 141 l51 51 43 -10 c73 -17 179 -12 179 9 0 5 -27 6
-59 3 -60 -6 -115 1 -139 16 -11 7 -11 14 4 42 13 24 18 56 18 109 0 53 -5 85
-18 109 -15 28 -15 35 -4 42 24 15 79 22 139 16 32 -3 59 -2 59 3 0 21 -119
27 -182 10 -37 -11 -39 -10 -91 42 -170 170 -488 209 -726 88 -59 -29 -147
-105 -168 -143 -9 -18 -12 -18 -71 2 -67 23 -146 27 -203 11 -36 -10 -38 -9
-91 42 -176 172 -497 210 -731 86 -60 -32 -144 -104 -164 -141 -9 -18 -12 -18
-71 2 -67 23 -146 27 -204 11 -35 -10 -37 -9 -90 42 -172 172 -498 209 -731
86 -60 -32 -144 -104 -164 -141 -9 -18 -12 -18 -71 2 -67 23 -146 27 -204 11
-35 -10 -37 -9 -90 42 -209 207 -625 212 -837 9 -27 -25 -53 -54 -58 -64 -9
-18 -12 -18 -71 2 -67 23 -146 27 -204 11 -35 -10 -37 -9 -91 44 -168 168
-499 207 -728 85 -59 -32 -132 -93 -161 -137 l-16 -23 -60 20 c-66 23 -146 27
-203 11 -34 -10 -37 -8 -91 45 -175 168 -500 206 -729 84 -59 -32 -132 -93
-161 -137 l-16 -23 -60 20 c-66 23 -146 27 -203 11 -34 -10 -37 -8 -91 45
-234 226 -694 202 -885 -48 l-21 -28 -61 21 c-65 22 -132 25 -198 10 -42 -10
-42 -10 -88 39 -121 129 -366 191 -578 146 -126 -27 -251 -102 -313 -188 l-20
-29 -62 21 c-68 23 -131 26 -195 10 l-42 -10 -60 58 c-236 228 -705 196 -888
-60 -12 -18 -15 -18 -75 2 -67 23 -136 27 -195 10 -38 -10 -39 -10 -100 48
-72 67 -146 106 -254 134 -89 22 -226 24 -320 4z m321 -42 c98 -24 197 -83
247 -147 l20 -26 -35 -33 c-59 -56 -71 -118 -36 -186 10 -21 32 -48 46 -59
l28 -19 -50 -50 c-266 -266 -858 -131 -857 196 0 241 320 404 637 324z m1261
0 c83 -20 163 -65 219 -122 l47 -47 -40 -42 c-68 -71 -68 -155 0 -223 l40 -40
-51 -49 c-154 -150 -446 -183 -661 -75 -57 30 -159 125 -159 149 0 9 9 30 20
48 26 43 26 113 0 156 -11 18 -20 39 -20 48 0 8 23 40 52 70 75 79 172 123
328 148 40 7 160 -4 225 -21z m1240 6 c82 -18 185 -73 239 -128 l49 -50 -32
-27 c-81 -68 -83 -167 -5 -241 l35 -33 -51 -50 c-158 -153 -455 -184 -671 -69
-60 32 -149 119 -149 145 0 7 9 28 20 46 26 43 26 113 0 153 -29 44 -25 61 30
119 122 129 324 180 535 135z m1260 0 c82 -18 185 -73 239 -128 l49 -50 -32
-27 c-81 -67 -83 -167 -6 -240 l35 -33 -50 -50 c-190 -190 -593 -185 -775 10
-51 54 -54 68 -24 116 27 43 22 116 -9 160 -20 29 -20 30 -3 59 27 43 103 109
158 137 120 61 269 78 418 46z m1260 0 c82 -18 185 -73 239 -128 l49 -50 -32
-27 c-69 -58 -82 -142 -31 -212 17 -23 35 -42 40 -42 23 0 7 -33 -36 -74 -183
-176 -556 -180 -746 -8 -23 20 -49 50 -59 66 -17 29 -17 30 4 60 31 44 31 129
-1 174 l-23 32 20 28 c113 159 342 231 576 181z m1260 -1 c79 -17 175 -67 233
-121 l53 -51 -34 -35 c-46 -48 -57 -72 -57 -121 0 -48 11 -73 52 -117 l31 -32
-21 -26 c-54 -69 -160 -127 -275 -152 -84 -17 -235 -12 -308 11 -106 33 -209
103 -250 170 -17 29 -17 30 3 59 34 47 35 107 4 162 -26 47 -26 47 -7 74 113
159 342 230 576 179z m1295 -10 c36 -11 85 -31 109 -45 53 -31 131 -101 131
-118 0 -6 -12 -22 -26 -36 -37 -34 -54 -72 -54 -119 0 -48 11 -73 53 -118 l31
-32 -48 -49 c-96 -98 -247 -147 -416 -137 -52 3 -116 12 -141 20 -104 32 -200
97 -250 168 l-20 28 22 31 c34 49 37 109 5 165 l-26 46 28 39 c117 159 374
226 602 157z m1260 0 c36 -11 85 -31 109 -45 53 -31 131 -101 131 -118 0 -6
-12 -22 -26 -36 -37 -34 -54 -72 -54 -119 0 -48 11 -73 53 -118 l31 -32 -44
-45 c-206 -210 -646 -185 -810 46 l-20 27 25 44 c32 55 32 100 -1 155 -24 42
-25 45 -9 69 44 68 151 143 245 173 106 34 256 33 370 -1z m1260 0 c36 -11 85
-31 109 -45 50 -29 131 -100 131 -116 0 -5 -15 -27 -34 -48 -66 -72 -65 -146
1 -220 l36 -40 -43 -44 c-83 -85 -202 -133 -350 -141 -166 -10 -301 32 -405
128 -77 70 -80 78 -50 130 32 55 31 93 -1 153 l-25 48 29 41 c36 50 131 117
206 145 117 43 270 47 396 9z m1240 5 c30 -7 78 -25 107 -39 56 -27 153 -108
153 -128 0 -7 -16 -27 -35 -46 -68 -66 -67 -145 3 -222 l35 -39 -43 -44 c-148
-151 -442 -189 -654 -85 -62 31 -131 88 -161 134 -15 22 -14 27 10 71 32 60
32 90 0 150 l-26 48 27 39 c104 150 357 220 584 161z m-10790 -172 c39 -14 44
-20 41 -41 -2 -14 -3 -63 -3 -110 0 -47 1 -96 3 -110 4 -22 -2 -27 -46 -43
-55 -19 -187 -19 -207 1 -8 8 -6 22 6 52 20 51 21 149 1 197 -9 20 -14 42 -11
49 10 27 151 31 216 5z m1260 0 c39 -15 44 -20 40 -42 -7 -40 -5 -182 3 -210
8 -23 4 -27 -35 -45 -31 -14 -65 -19 -125 -19 -101 0 -112 8 -89 65 20 51 21
149 1 197 -9 20 -14 42 -11 49 10 27 151 31 216 5z m1260 0 c39 -15 44 -20 40
-42 -7 -40 -5 -182 3 -210 8 -23 4 -27 -35 -45 -49 -22 -199 -27 -218 -8 -9 9
-8 24 4 58 9 26 16 69 16 96 0 27 -7 70 -16 96 -8 25 -12 50 -7 54 25 24 153
25 213 1z m1255 1 c54 -18 53 -16 37 -97 -10 -46 -6 -87 12 -156 7 -23 3 -27
-36 -45 -49 -22 -199 -27 -218 -8 -9 9 -8 24 4 58 9 26 16 69 16 96 0 27 -7
70 -16 96 -8 25 -12 50 -7 54 24 24 142 25 208 2z m1253 3 c28 -9 53 -19 56
-23 2 -4 -2 -33 -11 -65 -14 -57 -12 -87 12 -172 13 -44 -140 -81 -231 -56
l-42 11 19 50 c23 60 24 132 4 190 -8 23 -15 47 -15 52 0 29 127 37 208 13z
m1260 0 c28 -9 53 -19 56 -23 2 -4 -3 -34 -11 -66 -15 -58 -12 -97 12 -171 5
-17 -1 -24 -32 -39 -48 -23 -146 -32 -199 -17 l-42 11 19 50 c24 64 24 136 0
199 l-19 50 27 10 c40 15 132 13 189 -4z m1285 -10 c28 -13 36 -22 31 -34 -26
-63 -26 -153 1 -222 14 -38 -146 -73 -231 -50 l-41 11 18 52 c23 67 23 129 0
195 l-18 52 26 11 c40 15 170 6 214 -15z m1260 -1 c27 -13 36 -22 31 -33 -26
-63 -26 -153 1 -222 15 -38 -147 -73 -233 -50 -35 10 -42 16 -36 29 39 93 43
149 15 229 l-18 52 26 11 c40 15 170 6 214 -16z m1258 2 l35 -18 -15 -58 c-15
-57 -10 -122 13 -181 16 -38 -146 -73 -232 -50 -35 10 -42 16 -36 29 40 94 43
146 15 227 l-19 54 26 10 c40 16 171 7 213 -13z m-10333 -85 c13 -53 5 -135
-17 -170 -15 -23 -56 11 -76 63 -14 36 -15 51 -6 79 14 42 56 90 74 84 6 -2
18 -27 25 -56z m1252 28 c26 -61 8 -209 -25 -209 -18 0 -51 43 -65 86 -14 41
-1 89 35 128 31 33 40 33 55 -5z m1260 -5 c23 -70 7 -204 -25 -204 -18 0 -62
57 -70 93 -13 49 38 147 76 147 4 0 13 -16 19 -36z m1259 5 c23 -67 6 -209
-25 -209 -20 0 -64 65 -71 103 -5 34 13 83 45 120 22 25 39 21 51 -14z m1260
0 c23 -66 4 -209 -28 -209 -5 0 -23 17 -38 37 -21 28 -28 47 -28 83 0 36 7 55
28 83 34 45 52 47 66 6z m1260 0 c23 -66 4 -209 -28 -209 -17 0 -60 60 -67 94
-7 42 1 71 33 114 30 40 48 41 62 1z m1260 0 c23 -66 4 -209 -28 -209 -14 0
-60 58 -67 86 -10 38 4 90 32 124 33 38 49 38 63 -1z m1260 -6 c21 -75 4 -203
-28 -203 -14 0 -60 58 -67 86 -10 38 4 90 32 124 34 40 51 38 63 -7z m1259 -2
c15 -47 15 -104 2 -153 -13 -47 -26 -55 -52 -32 -62 57 -64 137 -5 202 29 31
42 28 55 -17z m1260 0 c15 -47 15 -104 2 -153 -13 -47 -26 -55 -52 -32 -62 57
-64 137 -5 202 29 31 42 28 55 -17z m-10963 -80 c0 -51 -20 -90 -38 -72 -12
12 -14 122 -2 140 15 25 40 -16 40 -68z m1252 48 c22 -42 8 -116 -23 -126 -15
-5 -26 67 -18 117 7 44 22 48 41 9z m1252 18 c20 -25 23 -72 7 -110 -8 -20
-19 -37 -24 -37 -14 0 -23 74 -16 120 7 42 15 48 33 27z m1270 -33 c12 -34 11
-44 -2 -76 -9 -21 -20 -38 -26 -38 -14 0 -24 74 -16 121 8 49 25 47 44 -7z
m1260 0 c12 -34 11 -44 -2 -76 -9 -21 -20 -38 -26 -38 -14 0 -24 74 -16 121 8
49 25 47 44 -7z m1257 10 c13 -31 13 -42 2 -77 -17 -53 -35 -58 -44 -13 -8 43
3 126 17 126 6 0 17 -16 25 -36z m1261 -7 c10 -29 10 -45 0 -74 -22 -66 -47
-46 -47 37 0 83 25 103 47 37z m1253 24 c16 -30 12 -104 -7 -131 l-17 -24 -7
24 c-15 54 -7 150 12 150 4 0 13 -9 19 -19z m1260 0 c16 -30 12 -104 -7 -131
l-17 -24 -7 24 c-15 54 -7 150 12 150 4 0 13 -9 19 -19z"/>
<path d="M735 3898 c-38 -5 -89 -11 -112 -11 -22 -1 -37 -5 -32 -8 5 -3 -10
-11 -33 -18 -24 -7 -63 -24 -87 -37 -24 -13 -46 -22 -48 -20 -3 3 17 16 44 30
26 14 44 25 38 25 -17 1 -88 -43 -88 -54 1 -5 -12 -25 -28 -43 -52 -59 -51
-108 6 -170 35 -40 109 -81 183 -103 28 -8 38 -15 30 -20 -7 -5 5 -6 27 -4 29
4 34 3 20 -4 -36 -16 68 -26 250 -25 139 1 184 5 247 22 98 27 173 62 225 107
51 43 92 46 135 9 38 -31 109 -68 166 -85 30 -8 39 -15 30 -21 -8 -5 3 -7 27
-3 31 4 35 3 20 -5 -15 -8 -10 -9 25 -5 31 3 39 2 25 -4 -33 -14 104 -24 244
-18 193 9 325 48 417 123 64 53 101 57 148 17 42 -35 138 -80 204 -95 42 -9
50 -14 36 -20 -11 -4 1 -6 31 -3 34 3 42 2 25 -4 -41 -13 117 -25 250 -18 182
9 336 57 417 131 50 45 91 48 137 9 42 -35 138 -80 204 -95 42 -9 50 -14 36
-20 -11 -4 1 -6 31 -3 33 3 42 2 25 -3 -21 -7 -16 -9 30 -15 247 -30 524 25
637 127 53 47 87 47 152 1 55 -40 145 -79 206 -91 33 -6 36 -8 20 -15 -13 -6
-2 -7 30 -4 34 3 42 2 25 -4 -40 -13 114 -24 249 -19 186 9 355 63 425 137 42
44 94 43 148 -3 42 -37 138 -79 203 -92 32 -6 36 -9 20 -14 -41 -15 156 -33
295 -27 200 8 359 57 438 137 39 39 94 42 131 6 31 -29 109 -69 169 -87 28 -8
38 -15 30 -20 -7 -5 5 -6 27 -4 29 4 34 3 20 -4 -36 -16 68 -26 250 -25 139 1
184 5 247 22 100 27 179 65 225 108 45 43 91 46 135 8 38 -31 109 -68 166 -85
30 -8 39 -15 30 -21 -8 -5 3 -7 27 -3 31 4 35 3 20 -5 -15 -8 -10 -9 25 -5 31
3 39 2 25 -4 -33 -14 103 -24 244 -18 193 8 335 52 428 132 51 44 92 46 137 8
42 -35 138 -80 204 -95 42 -9 50 -14 36 -20 -11 -4 1 -6 31 -3 34 3 42 2 25
-4 -42 -14 98 -24 239 -18 193 8 344 55 428 131 50 45 91 48 137 9 42 -35 138
-80 204 -95 42 -9 50 -14 36 -20 -11 -4 1 -6 31 -3 33 3 42 2 25 -3 -21 -7
-16 -9 30 -15 247 -30 524 25 637 127 52 47 90 48 144 5 45 -35 154 -84 214
-95 33 -6 36 -8 20 -15 -13 -6 -2 -7 30 -4 34 3 42 2 25 -4 -40 -13 114 -24
249 -19 186 9 355 63 425 137 24 25 38 31 71 31 22 0 46 5 53 12 16 16 16 130
0 146 -7 7 -39 12 -76 12 -52 0 -69 4 -96 25 -45 35 -135 70 -231 91 -108 23
-341 23 -446 0 -42 -9 -83 -15 -90 -13 -8 2 -10 2 -6 -1 7 -3 -106 -62 -119
-62 -3 0 -2 5 2 12 4 7 3 8 -5 4 -6 -4 -9 -11 -6 -16 11 -17 -28 -33 -94 -38
-63 -4 -72 -2 -104 22 -144 110 -505 146 -744 75 -37 -12 -78 -22 -90 -22 -11
-1 -19 -6 -15 -11 3 -5 -2 -6 -12 -3 -9 4 -15 3 -12 -2 3 -5 -5 -16 -19 -25
-35 -23 -45 -19 -15 5 l25 21 -25 -14 c-14 -9 -25 -21 -25 -29 0 -9 -19 -14
-67 -17 -61 -3 -71 -1 -112 27 -114 79 -362 124 -557 102 -149 -17 -207 -34
-343 -99 -5 -3 -6 0 -2 7 11 17 0 13 -15 -6 -12 -15 -12 -16 1 -8 12 7 13 6 3
-6 -7 -9 -35 -15 -76 -17 -57 -3 -70 0 -113 27 -135 86 -364 126 -569 100 -55
-7 -117 -13 -137 -13 -21 0 -33 -3 -27 -6 5 -4 -10 -12 -33 -19 -24 -7 -63
-24 -87 -37 -49 -27 -55 -29 -45 -12 4 7 3 8 -5 4 -6 -4 -9 -11 -6 -16 3 -4
-3 -14 -12 -21 -15 -12 -16 -12 -9 5 6 19 6 19 -12 3 -31 -28 -109 -22 -160
13 -124 83 -363 125 -567 99 -55 -7 -117 -13 -137 -13 -21 0 -33 -3 -28 -6 6
-4 -14 -14 -44 -24 -30 -9 -78 -32 -106 -51 -29 -19 -50 -29 -48 -23 2 6 31
27 64 45 32 18 55 33 49 33 -15 0 -109 -56 -124 -74 -9 -11 -30 -16 -63 -16
-39 0 -62 8 -114 39 -127 77 -344 113 -542 91 -64 -8 -132 -14 -150 -14 -20 1
-28 -2 -20 -8 10 -6 10 -8 1 -8 -24 0 -122 -41 -158 -66 -21 -14 -39 -23 -42
-21 -2 3 12 15 31 27 20 12 36 24 36 27 0 7 -49 -25 -76 -48 -32 -29 -116 -26
-158 6 -45 35 -135 70 -231 91 -108 23 -341 23 -446 0 -42 -9 -83 -15 -90 -13
-8 2 -10 2 -6 -1 7 -3 -106 -62 -119 -62 -3 0 -2 5 2 12 4 7 3 8 -5 4 -6 -4
-9 -11 -6 -16 11 -17 -28 -33 -94 -38 -63 -4 -72 -2 -104 22 -144 110 -505
146 -744 75 -37 -12 -78 -22 -90 -22 -11 -1 -19 -6 -15 -11 3 -5 -2 -6 -12 -3
-9 4 -15 3 -12 -2 3 -5 -5 -16 -19 -25 -35 -23 -45 -19 -15 5 l25 21 -25 -14
c-14 -9 -25 -21 -25 -29 0 -9 -19 -14 -67 -17 -60 -3 -71 -1 -110 25 -24 16
-56 35 -73 42 -121 53 -329 80 -486 62 -149 -17 -207 -34 -343 -99 -5 -3 -5 1
0 9 7 12 5 12 -9 0 -20 -16 -23 -26 -4 -15 9 6 9 5 0 -7 -7 -9 -35 -15 -76
-17 -57 -3 -70 0 -113 27 -135 86 -366 127 -569 100 -55 -7 -117 -13 -137 -13
-21 0 -33 -3 -27 -6 5 -4 -10 -12 -33 -19 -24 -7 -63 -24 -87 -37 -49 -27 -55
-29 -45 -12 4 7 3 8 -5 4 -6 -4 -9 -11 -6 -16 3 -4 -3 -14 -12 -21 -15 -12
-16 -12 -9 5 6 19 6 19 -12 3 -31 -28 -109 -22 -160 13 -54 36 -133 66 -224
85 -92 20 -276 26 -363 13z m265 -99 c-19 -7 -15 -8 17 -4 49 6 140 -24 168
-55 14 -16 16 -30 11 -67 -7 -56 -24 -73 -102 -102 -163 -62 -441 -35 -526 50
-38 38 -35 58 16 97 66 49 144 72 281 81 163 11 165 11 135 0z m1100 0 c-19
-7 -15 -8 17 -4 49 6 140 -24 168 -55 14 -16 16 -29 11 -67 -3 -26 -14 -56
-24 -65 -27 -27 -121 -57 -214 -67 -231 -26 -468 66 -408 159 5 8 10 10 10 3
0 -6 14 2 31 18 44 41 144 69 279 78 158 11 160 11 130 0z m1167 -3 c28 -8 70
-24 92 -37 35 -19 41 -28 41 -55 0 -46 -11 -94 -22 -94 -5 0 -6 5 -2 12 4 7 3
8 -5 4 -6 -4 -9 -12 -6 -17 9 -14 -85 -51 -115 -44 -17 4 -21 3 -11 -4 19 -12
-72 -25 -181 -23 -151 1 -282 49 -308 112 -12 29 -9 45 9 45 4 0 15 8 25 18
50 50 142 77 291 87 61 4 117 8 125 8 8 1 38 -4 67 -12z m1038 3 c-23 -6 -19
-7 20 -4 36 4 46 2 35 -5 -11 -8 -9 -9 11 -5 18 5 43 -2 78 -20 l52 -26 -3
-61 c-2 -41 -8 -63 -17 -66 -9 -3 -11 0 -6 8 5 9 4 11 -4 6 -6 -4 -9 -12 -5
-17 9 -15 -84 -52 -114 -45 -20 5 -23 4 -12 -4 8 -5 13 -10 10 -10 -3 0 -42
-4 -87 -10 -146 -16 -314 15 -377 70 -37 33 -48 60 -35 81 5 8 9 10 9 5 0 -6
12 2 28 16 59 55 132 78 287 88 61 4 121 7 135 7 22 1 22 0 -5 -8z m1118 4
c-7 -2 -19 -2 -25 0 -7 3 -2 5 12 5 14 0 19 -2 13 -5z m1087 -4 c-19 -7 -15
-8 17 -4 48 6 140 -24 168 -55 25 -28 12 -115 -20 -136 -142 -93 -473 -88
-589 8 -27 22 -36 37 -36 59 0 17 4 28 9 25 4 -3 17 4 27 15 47 52 137 79 294
89 161 10 160 10 130 -1z m1100 0 c-19 -7 -15 -8 17 -4 49 6 140 -24 168 -55
14 -16 16 -30 11 -67 -7 -56 -24 -73 -102 -102 -163 -62 -441 -35 -526 50 -38
38 -35 58 16 97 67 50 145 73 281 81 165 11 165 11 135 0z m1100 0 c-19 -7
-15 -8 17 -4 49 6 140 -24 168 -55 27 -29 14 -108 -22 -137 -60 -49 -232 -78
-370 -62 -173 19 -286 93 -243 159 5 8 10 10 10 3 0 -6 14 2 30 17 46 43 144
71 278 80 161 10 162 10 132 -1z m1167 -3 c28 -8 70 -24 92 -37 35 -19 41 -28
41 -55 0 -46 -11 -94 -22 -94 -5 0 -6 5 -2 12 4 7 3 8 -5 4 -6 -4 -9 -12 -6
-17 4 -5 -14 -18 -38 -28 -193 -83 -531 -42 -577 69 -12 28 -9 45 9 45 3 0 20
12 36 28 44 40 142 67 275 76 63 5 122 9 130 9 8 1 38 -4 67 -12z m1038 3
c-23 -6 -19 -7 20 -4 36 4 46 2 35 -5 -11 -8 -9 -9 11 -5 18 5 43 -2 78 -20
l52 -26 -3 -61 c-2 -41 -8 -63 -17 -66 -9 -3 -11 0 -6 8 5 9 4 11 -4 6 -6 -4
-9 -12 -5 -17 9 -15 -84 -52 -114 -45 -18 5 -22 4 -13 -3 21 -14 -58 -24 -174
-23 -155 2 -286 47 -314 109 -11 24 -5 56 9 48 4 -2 16 5 26 16 24 26 76 53
134 69 38 11 202 26 290 27 22 1 22 0 -5 -8z m1118 4 c-7 -2 -19 -2 -25 0 -7
3 -2 5 12 5 14 0 19 -2 13 -5z m-6489 -33 c54 -25 65 -46 58 -108 -5 -50 -31
-71 -117 -98 -221 -67 -535 -4 -535 108 0 16 4 27 9 24 4 -3 17 4 27 15 57 63
170 89 365 85 128 -3 152 -6 193 -26z m6523 17 c-7 -4 0 -5 14 -2 26 6 112
-26 125 -47 3 -5 5 -26 5 -46 -1 -20 -2 -45 -2 -55 0 -22 -47 -52 -114 -73
-221 -67 -535 -4 -535 108 0 16 4 27 9 24 4 -3 17 4 27 15 27 30 88 59 158 74
65 15 333 16 313 2z m-10627 -73 c0 -2 -9 -4 -20 -4 -11 0 -20 4 -20 9 0 5 9
7 20 4 11 -3 20 -7 20 -9z m3300 6 c0 -5 -8 -10 -17 -10 -15 0 -16 2 -3 10 19
12 20 12 20 0z m1100 0 c0 -5 -8 -10 -17 -10 -15 0 -16 2 -3 10 19 12 20 12
20 0z m1106 -3 c4 -4 -2 -7 -14 -7 -12 0 -22 4 -22 9 0 10 26 9 36 -2z m1104
-3 c0 -2 -9 -4 -20 -4 -11 0 -20 4 -20 9 0 5 9 7 20 4 11 -3 20 -7 20 -9z
m3300 6 c0 -5 -8 -10 -17 -10 -15 0 -16 2 -3 10 19 12 20 12 20 0z m1138 -37
c3 -38 1 -43 -17 -43 -12 0 -21 5 -21 10 0 6 5 10 10 10 6 0 10 11 10 25 0 21
-5 25 -27 25 -22 0 -25 2 -13 10 8 6 24 9 35 8 16 -2 21 -12 23 -45z m28 -59
c-6 -16 -76 -20 -76 -4 0 6 14 10 30 10 29 0 30 2 30 43 0 24 3 47 8 51 8 9
16 -80 8 -100z m-9983 89 c-7 -2 -19 -2 -25 0 -7 3 -2 5 12 5 14 0 19 -2 13
-5z m1104 1 c-3 -3 -12 -4 -19 -1 -8 3 -5 6 6 6 11 1 17 -2 13 -5z m5506 -1
c-7 -2 -19 -2 -25 0 -7 3 -2 5 12 5 14 0 19 -2 13 -5z m1104 1 c-3 -3 -12 -4
-19 -1 -8 3 -5 6 6 6 11 1 17 -2 13 -5z m-8792 -64 c3 -5 -1 -10 -9 -10 -9 0
-16 5 -16 10 0 6 4 10 9 10 6 0 13 -4 16 -10z m1105 0 c0 -5 -7 -10 -15 -10
-8 0 -15 5 -15 10 0 6 7 10 15 10 8 0 15 -4 15 -10z m1100 0 c0 -5 -4 -10 -10
-10 -5 0 -10 5 -10 10 0 6 5 10 10 10 6 0 10 -4 10 -10z m1100 0 c0 -5 -4 -10
-10 -10 -5 0 -10 5 -10 10 0 6 5 10 10 10 6 0 10 -4 10 -10z m1100 0 c0 -5 -4
-10 -10 -10 -5 0 -10 5 -10 10 0 6 5 10 10 10 6 0 10 -4 10 -10z m1100 0 c0
-5 -4 -10 -10 -10 -5 0 -10 5 -10 10 0 6 5 10 10 10 6 0 10 -4 10 -10z m1105
0 c3 -5 -1 -10 -9 -10 -9 0 -16 5 -16 10 0 6 4 10 9 10 6 0 13 -4 16 -10z
m1105 0 c0 -5 -7 -10 -15 -10 -8 0 -15 5 -15 10 0 6 7 10 15 10 8 0 15 -4 15
-10z m1100 0 c0 -5 -4 -10 -10 -10 -5 0 -10 5 -10 10 0 6 5 10 10 10 6 0 10
-4 10 -10z m1100 0 c0 -5 -4 -10 -10 -10 -5 0 -10 5 -10 10 0 6 5 10 10 10 6
0 10 -4 10 -10z m-9900 -30 c0 -5 -11 -10 -25 -10 -14 0 -25 5 -25 10 0 6 11
10 25 10 14 0 25 -4 25 -10z m1100 0 c0 -5 -12 -10 -26 -10 -14 0 -23 4 -19
10 3 6 15 10 26 10 10 0 19 -4 19 -10z m1100 0 c0 -5 -9 -10 -20 -10 -11 0
-20 5 -20 10 0 6 9 10 20 10 11 0 20 -4 20 -10z m1100 0 c0 -5 -9 -10 -20 -10
-11 0 -20 5 -20 10 0 6 9 10 20 10 11 0 20 -4 20 -10z m1105 0 c4 -6 -5 -10
-19 -10 -14 0 -26 5 -26 10 0 6 9 10 19 10 11 0 23 -4 26 -10z m1100 0 c4 -6
-5 -10 -19 -10 -14 0 -26 5 -26 10 0 6 9 10 19 10 11 0 23 -4 26 -10z m1105 0
c0 -5 -11 -10 -25 -10 -14 0 -25 5 -25 10 0 6 11 10 25 10 14 0 25 -4 25 -10z
m1100 0 c0 -5 -12 -10 -26 -10 -14 0 -23 4 -19 10 3 6 15 10 26 10 10 0 19 -4
19 -10z m1100 0 c0 -5 -9 -10 -20 -10 -11 0 -20 5 -20 10 0 6 9 10 20 10 11 0
20 -4 20 -10z m1100 0 c0 -5 -9 -10 -20 -10 -11 0 -20 5 -20 10 0 6 9 10 20
10 11 0 20 -4 20 -10z m-10667 -167 c-7 -2 -19 -2 -25 0 -7 3 -2 5 12 5 14 0
19 -2 13 -5z m5510 0 c-7 -2 -19 -2 -25 0 -7 3 -2 5 12 5 14 0 19 -2 13 -5z
m1100 0 c-7 -2 -19 -2 -25 0 -7 3 -2 5 12 5 14 0 19 -2 13 -5z m-6520 -10 c-7
-2 -21 -2 -30 0 -10 3 -4 5 12 5 17 0 24 -2 18 -5z m1100 0 c-7 -2 -19 -2 -25
0 -7 3 -2 5 12 5 14 0 19 -2 13 -5z m1100 0 c-7 -2 -19 -2 -25 0 -7 3 -2 5 12
5 14 0 19 -2 13 -5z m1100 0 c-7 -2 -19 -2 -25 0 -7 3 -2 5 12 5 14 0 19 -2
13 -5z m1100 0 c-7 -2 -19 -2 -25 0 -7 3 -2 5 12 5 14 0 19 -2 13 -5z m1100 0
c-7 -2 -19 -2 -25 0 -7 3 -2 5 12 5 14 0 19 -2 13 -5z m1110 0 c-7 -2 -21 -2
-30 0 -10 3 -4 5 12 5 17 0 24 -2 18 -5z m1100 0 c-7 -2 -21 -2 -30 0 -10 3
-4 5 12 5 17 0 24 -2 18 -5z m1100 0 c-7 -2 -19 -2 -25 0 -7 3 -2 5 12 5 14 0
19 -2 13 -5z m1100 0 c-7 -2 -19 -2 -25 0 -7 3 -2 5 12 5 14 0 19 -2 13 -5z
m1100 0 c-7 -2 -19 -2 -25 0 -7 3 -2 5 12 5 14 0 19 -2 13 -5z"/>
<path d="M1154 3614 c-18 -14 -18 -15 4 -4 12 6 22 13 22 15 0 8 -5 6 -26 -11z"/>
<path d="M2254 3614 c-18 -14 -18 -15 4 -4 12 6 22 13 22 15 0 8 -5 6 -26 -11z"/>
<path d="M3193 3793 c9 -2 23 -2 30 0 6 3 -1 5 -18 5 -16 0 -22 -2 -12 -5z"/>
<path d="M4430 3600 c-9 -6 -10 -10 -3 -10 6 0 15 5 18 10 8 12 4 12 -15 0z"/>
<path d="M6635 3604 c-22 -13 -35 -24 -30 -24 12 0 75 38 75 45 0 6 2 7 -45
-21z"/>
<path d="M8864 3614 c-18 -14 -18 -15 4 -4 12 6 22 13 22 15 0 8 -5 6 -26 -11z"/>
<path d="M9803 3793 c9 -2 23 -2 30 0 6 3 -1 5 -18 5 -16 0 -22 -2 -12 -5z"/>
<path d="M11040 3600 c-9 -6 -10 -10 -3 -10 6 0 15 5 18 10 8 12 4 12 -15 0z"/>
<path d="M5545 3609 c-16 -10 -25 -19 -19 -19 7 0 22 9 35 20 30 24 23 24 -16
-1z"/>
<path d="M12155 3609 c-16 -10 -25 -19 -19 -19 7 0 22 9 35 20 30 24 23 24
-16 -1z"/>
<path d="M4910 3860 c-8 -5 -10 -10 -5 -10 6 0 17 5 25 10 8 5 11 10 5 10 -5
0 -17 -5 -25 -10z"/>
<path d="M11520 3860 c-8 -5 -10 -10 -5 -10 6 0 17 5 25 10 8 5 11 10 5 10 -5
0 -17 -5 -25 -10z"/>
<path d="M1568 3844 c-39 -21 -35 -28 5 -8 37 19 44 24 31 24 -5 -1 -21 -8
-36 -16z"/>
<path d="M8178 3844 c-39 -21 -35 -28 5 -8 37 19 44 24 31 24 -5 -1 -21 -8
-36 -16z"/>
<path d="M2654 3834 c-18 -14 -18 -14 6 -3 31 14 36 19 24 19 -6 0 -19 -7 -30
-16z"/>
<path d="M9264 3834 c-18 -14 -18 -14 6 -3 31 14 36 19 24 19 -6 0 -19 -7 -30
-16z"/>
<path d="M379 3783 c-13 -16 -12 -17 4 -4 16 13 21 21 13 21 -2 0 -10 -8 -17
-17z"/>
<path d="M2808 3463 c7 -3 16 -2 19 1 4 3 -2 6 -13 5 -11 0 -14 -3 -6 -6z"/>
<path d="M3908 3463 c7 -3 16 -2 19 1 4 3 -2 6 -13 5 -11 0 -14 -3 -6 -6z"/>
<path d="M5008 3463 c7 -3 16 -2 19 1 4 3 -2 6 -13 5 -11 0 -14 -3 -6 -6z"/>
<path d="M9418 3463 c7 -3 16 -2 19 1 4 3 -2 6 -13 5 -11 0 -14 -3 -6 -6z"/>
<path d="M10518 3463 c7 -3 16 -2 19 1 4 3 -2 6 -13 5 -11 0 -14 -3 -6 -6z"/>
<path d="M11618 3463 c7 -3 16 -2 19 1 4 3 -2 6 -13 5 -11 0 -14 -3 -6 -6z"/>
<path d="M485 2685 c-131 -24 -232 -73 -311 -152 -136 -137 -134 -324 6 -461
183 -181 544 -211 784 -67 55 33 57 33 148 28 51 -3 113 0 138 6 43 10 48 8
110 -29 211 -127 498 -129 704 -5 55 33 57 33 148 28 51 -3 113 0 138 6 43 10
48 8 110 -29 205 -122 453 -130 675 -21 l100 49 85 -5 c47 -2 105 0 130 6 43
10 48 8 110 -29 211 -125 469 -131 687 -15 81 43 81 43 165 38 48 -3 107 -1
138 6 49 10 57 10 80 -8 197 -145 522 -157 740 -26 54 32 56 33 150 28 52 -3
115 0 139 5 42 10 48 9 109 -28 206 -125 498 -129 695 -10 l64 39 94 -6 c52
-3 114 0 138 5 42 10 48 9 102 -25 211 -130 506 -133 713 -8 55 33 57 33 148
28 51 -3 113 0 137 5 42 10 48 9 110 -28 214 -127 499 -129 705 -5 55 33 57
33 148 28 51 -3 113 0 138 6 43 10 48 8 110 -29 141 -84 304 -114 468 -87 99
16 201 54 260 96 25 17 39 19 123 14 52 -3 114 0 139 6 43 10 48 8 110 -29
211 -125 469 -131 687 -15 81 43 81 43 165 38 48 -3 107 -1 138 6 49 10 57 10
80 -8 197 -145 523 -157 740 -26 54 32 57 33 146 28 140 -8 261 28 338 103
201 195 -4 462 -339 441 -88 -6 -90 -6 -145 28 -75 45 -168 75 -275 88 -155
18 -334 -25 -456 -109 -34 -23 -39 -24 -90 -13 -31 7 -87 9 -134 6 l-80 -6
-100 50 c-80 39 -120 53 -200 66 -168 27 -339 -4 -473 -88 -62 -38 -63 -38
-115 -28 -29 7 -89 9 -139 6 -86 -6 -89 -5 -144 28 -73 44 -157 72 -260 86
-149 21 -334 -18 -450 -95 -52 -35 -54 -35 -111 -25 -32 6 -95 9 -140 6 -80
-6 -84 -5 -139 28 -204 123 -495 121 -701 -3 -70 -42 -70 -42 -124 -31 -31 7
-88 9 -136 6 -82 -6 -83 -6 -149 33 -204 119 -490 115 -697 -10 -65 -40 -67
-40 -119 -29 -31 7 -88 9 -137 6 -83 -6 -85 -6 -140 28 -205 125 -500 121
-711 -9 -57 -36 -59 -36 -111 -25 -32 7 -88 9 -138 6 -83 -6 -86 -6 -140 27
-211 128 -509 122 -722 -15 -45 -28 -48 -29 -100 -18 -31 7 -87 9 -134 6 l-80
-6 -100 50 c-227 112 -479 102 -681 -28 -50 -33 -53 -33 -105 -22 -32 7 -88 9
-140 6 -86 -7 -88 -6 -144 28 -74 44 -158 72 -261 86 -149 21 -334 -18 -450
-95 -53 -35 -54 -36 -106 -25 -30 7 -90 9 -140 6 -86 -6 -89 -5 -144 28 -204
123 -495 121 -701 -3 -70 -42 -70 -42 -124 -31 -31 7 -88 9 -137 6 -81 -6 -84
-5 -140 28 -135 82 -310 111 -477 80z m293 -184 c50 -23 64 -42 41 -57 -22
-13 -49 -90 -49 -139 0 -47 20 -104 52 -147 17 -23 -7 -41 -83 -62 -212 -60
-449 50 -449 209 0 83 78 171 184 205 85 28 229 23 304 -9z m1076 8 c37 -11
69 -26 72 -34 3 -7 -7 -32 -23 -56 -24 -37 -28 -52 -28 -114 0 -62 4 -77 28
-114 16 -24 26 -49 23 -56 -2 -7 -35 -23 -71 -35 -95 -32 -224 -26 -312 14
-35 16 -63 34 -63 40 0 6 11 33 25 60 15 29 25 66 25 91 0 25 -10 62 -25 91
-14 27 -25 54 -25 60 0 11 93 57 135 67 54 13 176 6 239 -14z m1127 -7 c51
-22 66 -37 48 -48 -21 -13 -59 -109 -59 -150 0 -26 11 -64 32 -104 30 -61 30
-63 12 -77 -68 -49 -263 -57 -361 -14 -73 32 -78 41 -52 91 35 66 36 127 5
195 -14 31 -23 61 -20 66 7 12 61 40 109 56 60 20 227 11 286 -15z m1063 14
c26 -8 58 -21 71 -30 l24 -16 -32 -52 c-27 -43 -32 -61 -32 -113 0 -52 5 -70
32 -114 l33 -52 -33 -19 c-78 -48 -257 -53 -354 -11 -75 33 -78 40 -48 96 34
65 34 135 0 199 -14 26 -23 52 -19 57 8 13 61 40 109 55 54 17 191 17 249 0z
m1144 -15 c28 -13 52 -27 52 -30 0 -4 -11 -22 -24 -40 -14 -18 -30 -55 -36
-82 -14 -59 -2 -119 36 -171 13 -17 24 -35 24 -39 0 -3 -24 -17 -52 -30 -46
-21 -68 -24 -168 -24 -99 0 -122 3 -167 24 -74 33 -78 40 -48 92 34 60 34 137
0 204 -13 27 -22 52 -19 57 7 12 62 39 109 55 65 21 228 12 293 -16z m1100 0
c49 -22 64 -42 42 -56 -15 -9 -42 -65 -51 -105 -10 -45 5 -112 36 -158 14 -20
25 -40 25 -43 0 -4 -24 -17 -52 -30 -108 -46 -279 -36 -375 23 l-33 19 27 50
c35 68 35 136 0 206 l-26 51 27 18 c89 58 275 70 380 25z m1100 0 c50 -23 64
-42 41 -57 -22 -13 -49 -90 -49 -139 0 -49 27 -126 49 -139 46 -29 -57 -77
-176 -84 -88 -5 -152 6 -220 39 -49 24 -51 33 -21 85 31 52 31 133 1 195 -13
25 -23 50 -23 55 0 14 38 35 100 56 79 26 225 20 298 -11z m1076 8 c37 -11 69
-26 72 -34 3 -7 -7 -32 -23 -56 -24 -37 -28 -52 -28 -114 0 -62 4 -77 28 -114
16 -24 26 -49 23 -56 -3 -8 -37 -24 -76 -36 -100 -30 -220 -24 -307 15 -35 16
-63 33 -63 39 0 5 12 34 26 64 22 45 26 62 21 104 -4 28 -15 67 -27 86 -11 19
-20 40 -20 47 0 12 90 58 135 69 54 13 176 6 239 -14z m1129 -7 c26 -12 47
-24 47 -28 0 -4 -14 -35 -31 -70 -43 -87 -37 -148 21 -241 19 -29 10 -38 -66
-64 -80 -29 -224 -24 -301 10 -75 33 -78 39 -48 102 31 68 31 120 0 187 -14
30 -22 58 -19 63 7 12 61 40 109 56 61 20 227 11 288 -15z m1061 14 c26 -8 58
-21 71 -30 l24 -16 -32 -51 c-27 -44 -32 -62 -32 -114 0 -52 5 -70 32 -114
l33 -52 -33 -19 c-78 -48 -257 -53 -354 -11 -75 33 -78 40 -48 96 34 65 34
135 0 199 -14 26 -23 52 -19 57 8 13 61 40 109 55 54 17 191 17 249 0z m1144
-15 c28 -13 52 -27 52 -31 0 -4 -9 -19 -21 -33 -57 -73 -60 -169 -9 -251 17
-26 30 -48 30 -50 0 -2 -24 -14 -52 -27 -46 -21 -68 -24 -168 -24 -99 0 -122
3 -167 24 -74 33 -77 39 -48 96 33 65 33 135 0 200 -13 27 -22 52 -19 57 7 12
62 39 109 55 65 21 228 12 293 -16z m-10593 -58 c-37 -87 -40 -177 -9 -251 16
-40 18 -37 -21 -45 -50 -9 -56 1 -35 63 28 80 24 139 -15 233 -6 15 -1 17 40
17 41 0 46 -2 40 -17z m1100 -5 c-40 -126 -41 -133 -18 -210 12 -40 21 -73 20
-74 -11 -7 -66 -11 -76 -5 -10 7 -9 15 4 41 35 67 31 151 -10 253 -6 15 -1 17
40 17 45 0 47 -1 40 -22z m1100 0 c-40 -132 -40 -133 0 -264 6 -18 1 -22 -24
-27 -54 -11 -60 -3 -40 56 23 66 23 138 0 205 l-18 52 45 0 c41 0 44 -1 37
-22z m1105 13 c0 -5 -7 -28 -15 -51 -8 -23 -15 -54 -15 -68 0 -36 -12 -20 -27
36 -7 26 -15 57 -19 70 -6 20 -3 22 35 22 23 0 41 -4 41 -9z m1100 -3 c0 -7
-7 -31 -15 -53 -19 -54 -19 -122 2 -184 18 -57 18 -56 -17 -64 -44 -11 -55 5
-38 50 33 81 32 117 -7 241 -7 20 -4 22 34 22 26 0 41 -4 41 -12z m1102 7 c3
-3 -3 -29 -13 -58 -23 -66 -23 -118 0 -185 19 -56 19 -56 -19 -65 -46 -11 -50
2 -27 81 21 70 21 75 5 135 -9 34 -20 70 -23 80 -6 14 -1 17 32 17 22 0 42 -2
45 -5z m1103 -12 c-16 -37 -35 -119 -35 -148 1 -16 9 -55 20 -85 10 -30 18
-55 17 -56 -1 -1 -16 -4 -32 -7 -50 -9 -56 1 -35 63 28 80 24 139 -15 233 -6
15 -1 17 40 17 41 0 46 -2 40 -17z m1100 0 c-3 -10 -14 -46 -23 -80 -16 -60
-16 -65 5 -135 12 -40 21 -73 20 -74 -1 -1 -16 -4 -32 -7 -50 -9 -56 1 -35 63
28 80 24 139 -15 233 -6 15 -1 17 40 17 41 0 46 -2 40 -17z m1100 -5 c-40
-132 -40 -140 0 -264 6 -18 2 -22 -24 -27 -54 -11 -60 -3 -40 56 24 68 24 134
0 202 l-19 55 45 0 c42 0 45 -1 38 -22z m1101 0 c-4 -13 -12 -44 -19 -70 -6
-27 -14 -48 -17 -48 -3 0 -11 21 -17 48 -7 26 -15 57 -19 70 -6 20 -3 22 36
22 39 0 42 -2 36 -22z m1147 10 c23 -7 61 -31 84 -54 39 -36 43 -45 43 -87 0
-40 -6 -53 -36 -86 -36 -40 -89 -66 -155 -74 -56 -8 -65 3 -45 52 20 52 21
160 1 208 -8 19 -15 39 -15 44 0 13 76 11 123 -3z m-11323 -144 c0 -21 -4 -33
-10 -29 -17 10 -11 65 7 65 2 0 3 -16 3 -36z m1100 0 c0 -21 -4 -33 -10 -29
-17 10 -11 65 7 65 2 0 3 -16 3 -36z m1100 -1 c-1 -31 -3 -35 -11 -20 -6 9 -7
26 -4 37 10 30 15 24 15 -17z m1104 -16 c-7 -21 -7 -21 -14 -2 -4 11 -5 28 -2
38 4 17 6 18 14 3 5 -9 6 -26 2 -39z m1106 18 c0 -13 -4 -27 -10 -30 -6 -4
-10 8 -10 30 0 22 4 34 10 30 6 -3 10 -17 10 -30z m1100 -6 c0 -16 -4 -29 -10
-29 -5 0 -10 16 -10 36 0 21 4 33 10 29 6 -3 10 -19 10 -36z m1100 5 c0 -21
-4 -33 -10 -29 -17 10 -11 65 7 65 2 0 3 -16 3 -36z m1100 0 c0 -21 -4 -33
-10 -29 -17 10 -11 65 7 65 2 0 3 -16 3 -36z m1100 -1 c0 -27 -3 -34 -11 -26
-7 7 -9 23 -5 37 9 37 16 32 16 -11z m1102 -16 c-4 -17 -6 -18 -14 -3 -5 9 -6
26 -2 39 7 21 7 21 14 2 4 -11 5 -28 2 -38z m1108 18 c0 -13 -4 -27 -10 -30
-6 -4 -10 8 -10 30 0 22 4 34 10 30 6 -3 10 -17 10 -30z m-7461 -108 c16 -40
14 -44 -19 -50 -54 -11 -59 -3 -37 66 11 34 22 69 25 77 3 8 8 -3 13 -25 4
-22 12 -53 18 -68z m6598 46 c7 -27 15 -57 18 -69 6 -18 1 -22 -24 -27 -55
-11 -61 -2 -40 54 11 27 19 58 19 69 0 36 15 21 27 -27z"/>
<path d="M1220 1200 c-71 -9 -184 -36 -213 -51 -13 -7 -36 -4 -80 10 -277 92
-651 10 -753 -164 -87 -150 34 -311 287 -381 101 -28 339 -26 442 4 95 27 113
27 224 1 74 -18 110 -20 223 -17 88 3 158 11 202 23 l66 19 94 -30 c86 -27
104 -29 248 -29 122 0 169 4 220 19 100 29 122 30 222 6 124 -30 286 -30 415
-1 l93 21 77 -22 c66 -19 102 -23 233 -23 131 0 167 4 233 23 90 26 115 27
179 7 134 -40 337 -38 485 6 l75 22 91 -24 c131 -34 344 -34 464 0 89 25 110
24 233 -4 99 -22 314 -17 412 10 67 19 67 19 135 -3 37 -12 95 -27 128 -33 83
-15 294 -6 370 17 75 23 139 23 235 0 105 -26 277 -24 395 3 l91 20 79 -22
c117 -32 357 -32 468 1 91 26 115 27 182 7 132 -41 332 -38 483 7 l74 21 91
-24 c130 -34 343 -34 464 0 88 25 111 24 228 -3 103 -23 276 -21 387 5 l89 21
97 -29 c88 -25 111 -28 252 -28 132 0 167 4 237 24 87 24 101 24 223 -4 105
-24 269 -23 391 3 l96 21 74 -22 c62 -18 100 -21 239 -21 143 0 174 3 230 22
81 27 107 27 206 1 103 -27 287 -29 394 -4 87 20 199 71 252 114 40 34 88 121
88 160 0 127 -135 244 -336 292 -127 30 -332 24 -449 -14 l-80 -26 -63 19
c-143 45 -294 48 -463 9 l-87 -20 -73 23 c-65 20 -94 23 -244 23 -159 0 -175
-2 -248 -28 l-78 -27 -66 20 c-151 47 -344 47 -492 1 -36 -11 -64 -15 -73 -10
-30 20 -142 48 -229 58 -118 13 -253 0 -353 -33 l-73 -25 -63 20 c-158 49
-348 48 -509 -3 l-74 -23 -71 25 c-66 23 -85 25 -246 24 -163 0 -181 -2 -255
-27 l-80 -26 -63 19 c-144 45 -297 48 -462 8 l-86 -20 -69 22 c-55 18 -101 24
-215 27 -134 4 -152 2 -240 -22 -118 -33 -127 -33 -225 -5 -115 32 -295 32
-419 1 l-88 -23 -79 26 c-158 52 -370 53 -525 1 l-71 -24 -63 20 c-35 11 -105
25 -157 31 -111 14 -246 1 -352 -35 l-68 -22 -74 23 c-142 46 -388 41 -526
-10 -52 -19 -53 -19 -118 1 -148 46 -299 49 -465 9 l-86 -20 -69 22 c-52 17
-104 24 -202 27 -140 6 -212 -3 -315 -38 -56 -20 -56 -20 -120 0 -145 46 -303
49 -465 10 l-82 -20 -81 25 c-44 14 -120 30 -168 36 -95 11 -98 11 -192 0z
m263 -129 l38 -12 -35 -40 c-63 -74 -71 -165 -21 -241 l25 -38 -27 -12 c-37
-16 -259 -16 -296 0 l-27 12 27 41 c50 76 43 169 -19 248 -10 13 -16 26 -13
29 30 30 264 39 348 13z m3839 -2 l37 -12 -31 -35 c-38 -44 -58 -91 -58 -137
0 -40 22 -100 47 -127 14 -16 14 -18 -13 -30 -38 -16 -259 -16 -297 0 l-27 12
31 55 c42 74 39 143 -10 211 -18 26 -30 49 -27 52 32 31 266 39 348 11z m3795
11 c76 -17 82 -24 51 -57 -14 -15 -33 -43 -43 -62 -24 -47 -17 -140 13 -181
12 -16 22 -33 22 -39 0 -14 -91 -31 -165 -31 -69 0 -162 16 -170 30 -3 5 6 25
20 45 47 70 45 139 -6 219 -16 27 -27 51 -24 55 27 27 213 40 302 21z m-8304
-11 c20 -5 37 -12 37 -15 0 -2 -12 -22 -26 -44 -49 -74 -42 -168 18 -235 28
-33 28 -34 9 -44 -11 -6 -54 -16 -96 -23 -102 -16 -216 0 -302 43 -236 115
-92 328 222 329 55 0 117 -5 138 -11z m1907 0 c27 -6 50 -14 50 -18 0 -4 -10
-16 -21 -27 -32 -28 -59 -93 -59 -142 0 -43 17 -87 52 -131 13 -18 16 -27 8
-35 -16 -16 -269 -14 -297 2 l-22 12 30 58 c39 73 36 129 -10 203 -17 29 -29
54 -27 57 28 27 207 40 296 21z m1260 0 c73 -16 75 -17 57 -37 -25 -27 -57
-104 -57 -137 0 -36 33 -111 62 -142 l20 -22 -43 -13 c-55 -16 -273 -16 -312
0 l-29 12 26 31 c57 67 57 157 0 239 -19 28 -31 50 -27 50 5 1 31 7 58 15 59
16 182 19 245 4z m663 2 c21 -5 41 -11 43 -14 3 -3 -7 -22 -21 -43 -32 -47
-39 -73 -33 -133 3 -32 15 -63 36 -94 18 -25 32 -48 32 -50 0 -14 -109 -32
-195 -32 -84 1 -175 16 -175 30 0 2 11 21 25 41 48 70 46 155 -4 228 l-31 45
47 15 c54 16 217 20 276 7z m1945 -8 l23 -9 -38 -48 c-36 -46 -38 -53 -38
-121 0 -66 3 -77 33 -118 l33 -46 -43 -12 c-51 -13 -229 -7 -271 10 l-29 11
26 31 c55 65 57 154 4 234 -17 25 -28 49 -24 52 3 3 27 12 53 19 52 15 231 13
271 -3z m1269 -3 l32 -11 -32 -46 c-28 -39 -32 -53 -32 -108 0 -56 4 -69 33
-111 39 -54 37 -57 -47 -75 -64 -13 -223 -7 -265 10 -26 10 -27 13 -14 29 66
74 64 184 -4 271 -10 13 -16 26 -13 29 29 29 272 38 342 12z m636 7 l37 -12
-25 -37 c-51 -74 -49 -159 4 -234 17 -24 31 -46 31 -49 0 -2 -34 -11 -77 -21
-54 -12 -98 -15 -152 -11 -69 6 -141 22 -141 33 0 3 11 22 25 43 47 71 46 147
-5 222 -16 24 -26 47 -22 51 26 26 255 36 325 15z m1906 2 l51 -11 -35 -45
c-65 -85 -68 -157 -9 -244 l33 -49 -27 -7 c-42 -12 -254 -8 -284 5 l-28 11 25
37 c54 80 53 149 -4 235 -17 24 -28 45 -26 48 3 2 28 9 57 17 67 16 182 17
247 3z m1325 -19 c67 -25 128 -76 146 -121 29 -69 -34 -155 -146 -200 -50 -20
-77 -23 -184 -23 -77 -1 -136 4 -153 12 l-27 12 27 42 c24 35 28 52 28 109 0
60 -4 72 -33 114 -18 26 -31 50 -28 52 3 3 29 12 58 19 80 20 238 12 312 -16z
m-9634 9 c48 -10 61 -21 40 -34 -24 -15 -50 -86 -50 -139 0 -45 6 -62 35 -106
20 -29 33 -55 31 -58 -12 -12 -128 -32 -186 -32 -60 0 -174 20 -186 33 -4 3 6
21 20 39 61 80 70 147 31 224 -14 27 -25 52 -25 56 0 25 198 37 290 17z m1287
-5 l22 -9 -29 -43 c-53 -79 -49 -158 12 -235 17 -21 28 -40 26 -42 -2 -3 -33
-12 -69 -21 -71 -18 -230 -15 -269 6 -21 11 -21 11 10 47 61 70 70 153 23 231
-34 58 -35 64 -3 74 33 9 249 3 277 -8z m2553 5 l51 -11 -17 -26 c-66 -101
-63 -191 9 -269 11 -13 18 -25 16 -28 -3 -2 -34 -12 -70 -21 -77 -20 -224 -15
-283 10 l-38 16 35 40 c62 73 68 168 15 243 -11 15 -19 30 -17 32 24 23 214
32 299 14z m1258 0 l49 -12 -29 -47 c-16 -26 -32 -66 -35 -89 -7 -50 17 -118
52 -151 14 -13 25 -27 25 -30 0 -31 -289 -49 -339 -21 l-23 13 25 26 c69 74
76 176 19 257 l-31 45 32 9 c46 13 197 13 255 0z m2580 0 l49 -12 -29 -47
c-16 -25 -31 -62 -34 -81 -8 -49 12 -113 46 -153 17 -18 30 -36 30 -39 0 -2
-21 -11 -47 -18 -70 -20 -257 -18 -307 4 l-39 17 25 28 c64 68 77 163 33 241
-14 24 -23 46 -21 49 22 21 216 29 294 11z m1258 0 c24 -6 44 -13 44 -15 0 -3
-12 -23 -27 -45 -19 -29 -28 -57 -31 -97 -3 -51 0 -63 32 -116 20 -32 34 -61
32 -64 -12 -11 -127 -32 -183 -32 -58 0 -163 17 -163 26 0 2 16 24 35 49 56
74 59 147 9 233 -15 26 -28 49 -28 52 -3 19 212 26 280 9z m-4260 -111 c19
-36 18 -88 -3 -117 -15 -23 -17 -23 -30 -6 -17 25 -17 85 2 112 13 19 13 24
-7 49 l-22 29 23 -20 c13 -11 29 -32 37 -47z m-3824 -31 c5 -28 -3 -66 -19
-92 -13 -20 -13 -20 -28 -1 -19 25 -19 86 -1 112 13 16 13 22 0 44 -10 17 -6
15 15 -8 16 -19 31 -44 33 -55z m7653 46 c27 -41 32 -84 12 -122 -19 -38 -35
-36 -46 5 -8 27 -7 47 4 77 10 28 11 46 4 59 -17 32 -1 19 26 -19z m-9585 -73
c0 -21 -4 -41 -9 -45 -12 -7 -26 59 -17 81 10 26 26 5 26 -36z m650 14 c0 -32
-18 -66 -31 -59 -12 8 -12 51 2 76 13 25 29 15 29 -17z m2540 -14 c0 -45 -15
-61 -24 -25 -8 30 3 77 15 69 5 -3 9 -23 9 -44z m650 7 c0 -41 -14 -66 -24
-42 -8 21 -8 70 0 78 13 13 24 -5 24 -36z m642 -19 c-12 -47 -32 -48 -32 -1 0
45 19 73 32 48 5 -8 5 -29 0 -47z m2548 12 c0 -14 -4 -32 -9 -39 -8 -12 -11
-9 -16 12 -9 36 3 87 16 66 5 -7 9 -25 9 -39z m645 30 c8 -26 -4 -82 -16 -74
-12 7 -12 94 0 94 5 0 13 -9 16 -20z m645 -14 c0 -40 -8 -66 -21 -66 -10 0
-12 60 -3 84 11 28 24 17 24 -18z m-7030 -23 c0 -30 -10 -54 -21 -47 -10 6
-12 77 -2 87 9 10 23 -13 23 -40z m1255 19 c3 -16 2 -39 -4 -53 l-9 -24 -11
28 c-11 29 -5 77 9 77 5 0 11 -13 15 -28z m2581 3 c3 -13 2 -37 -4 -52 l-10
-28 -11 28 c-11 29 -5 77 10 77 5 0 11 -11 15 -25z m1254 -25 c0 -21 -4 -41
-9 -44 -12 -8 -24 48 -16 74 10 31 25 13 25 -30z m2583 23 c3 -15 0 -38 -5
-52 l-10 -26 -10 28 c-10 29 -4 77 11 77 5 0 11 -12 14 -27z m1257 -23 c0 -41
-14 -61 -24 -34 -8 21 -8 69 0 77 14 13 24 -6 24 -43z"/>
</g>
</svg>
